<?xml version="1.0" encoding="utf-8"?>
<!-- Svg Vector Icons : http://www.onlinewebfonts.com/icon -->
<!DOCTYPE svg PUBLIC "-//W3C//DTD SVG 1.1//EN" "http://www.w3.org/Graphics/SVG/1.1/DTD/svg11.dtd">
<svg version="1.1" xmlns="http://www.w3.org/2000/svg" xmlns:xlink="http://www.w3.org/1999/xlink" x="0px" y="0px" viewBox="0 0 1000 1000" enable-background="new 0 0 1000 1000" xml:space="preserve">
<metadata> Svg Vector Icons : http://www.onlinewebfonts.com/icon </metadata>
<g><g><path d="M500,10C229.8,10,10,229.8,10,500c0,270.2,219.8,490,490,490c270.2,0,490-219.8,490-490C990,229.8,770.2,10,500,10z M685.6,576.1c0,37-38.2,64.8-88.7,64.8c-50.6,0-88.7-27.9-88.7-64.8c0-37,38.2-64.8,88.7-64.8c12.2,0,23.7,1.7,34.1,4.7V366.9l-139.2,28.4v248.3c0,12-7.8,21.8-18.5,25.5c-15.9,15.1-40.8,24.7-70.2,24.7c-50.6,0-88.7-27.9-88.7-64.8c0-37,38.1-64.9,88.7-64.9c12.2,0,23.7,1.7,34.1,4.7V373.1c0-13,9.1-24.1,21.8-26.7l193.8-39.6c8-1.6,16.4,0.4,22.7,5.6c6.4,5.2,10,12.9,10,21.1L685.6,576.1L685.6,576.1z"/></g><g></g><g></g><g></g><g></g><g></g><g></g><g></g><g></g><g></g><g></g><g></g><g></g><g></g><g></g><g></g></g>
</svg>